inDegrees=yes
name=ik_S48_A08_T01
DataType=double
version=3
OpenSimVersion=4.3-2021-08-27-4bc7ad9
endheader
time	pelvis_tilt	pelvis_list	pelvis_rotation	pelvis_tx	pelvis_ty	pelvis_tz	hip_flexion_r	hip_adduction_r	hip_rotation_r	knee_angle_r	knee_angle_r_beta	ankle_angle_r	subtalar_angle_r	mtp_angle_r	hip_flexion_l	hip_adduction_l	hip_rotation_l	knee_angle_l	knee_angle_l_beta	ankle_angle_l	subtalar_angle_l	mtp_angle_l	lumbar_extension	lumbar_bending	lumbar_rotation	arm_flex_r	arm_add_r	arm_rot_r	elbow_flex_r	pro_sup_r	wrist_flex_r	wrist_dev_r	arm_flex_l	arm_add_l	arm_rot_l	elbow_flex_l	pro_sup_l	wrist_flex_l	wrist_dev_l
6.619999999999947	-6.509908474192494	-1.370496080631158	25.44445200251729	0	0.9399999999999999	0	21.21059038631838	-7.841204740814346	-6.675919737215525	23.59049491048109	0.4117318083628601	0	0	0	21.21059038631838	-7.841204740814346	-6.675919737215525	23.59049491048109	0.4117318083628601	0	0	0	-2.441300762108391	-3.295890436941874	8.124922853126167	28.6003384801952	-7.516880381493941	-3.410429106667243	56.64843157807557	152.406525373133	0	0	55.86904830058132	-17.53906123020961	11.49406672633849	42.6539945255073	73.86473709386118	0	0
6.639999999999946	-6.537911864496828	-1.367398463572336	25.31543780608484	0	0.9399999999999999	0	21.2208646292574	-7.844126484502668	-6.678817562342321	23.60118742913316	0.4119184280186695	0	0	0	21.2208646292574	-7.844126484502668	-6.678817562342321	23.60118742913316	0.4119184280186695	0	0	0	-2.463020495820181	-3.286604118191484	8.2655251079336	28.58700820855302	-7.583509447344113	-3.48811961064646	56.70730770134453	152.4217899035906	0	0	56.80171891510716	-17.24118534019667	11.97448074644603	41.42661746935057	72.81685630221129	0	0
6.659999999999946	-6.566674534335567	-1.36590014348328	25.2068521575404	0	0.9399999999999999	0	21.22797714650292	-7.846134533102033	-6.680815306052411	23.60862760404156	0.4120482835677454	0	0	0	21.22797714650292	-7.846134533102033	-6.680815306052411	23.60862760404156	0.4120482835677454	0	0	0	-2.487190409106896	-3.276983783175853	8.362147762891379	28.64755802310545	-7.614051709514826	-3.471766876929172	56.72157585348047	152.4260709461711	0	0	57.58673951649672	-17.0579256509262	12.43524763570946	40.41123867444763	72.09602274057316	0	0
6.679999999999946	-6.554456714717608	-1.378339000921693	25.12210318714237	0	0.9399999999999999	0	21.23664677048416	-7.848593045961061	-6.683257024430054	23.6176607209139	0.4122059411988852	0	0	0	21.23664677048416	-7.848593045961061	-6.683257024430054	23.6176607209139	0.4122059411988852	0	0	0	-2.480150924464883	-3.297760329407093	8.461553009423996	28.58814584040913	-7.607468847609718	-3.504721295848837	56.70191343775086	152.1932445450054	0	0	58.35748848630766	-16.83340148472752	12.89988047076942	39.30724008495084	71.85841998360178	0	0
6.699999999999945	-6.681762424154907	-1.43449719500307	25.0510070943692	0	0.9399999999999999	0	21.24482558402828	-7.850888911441124	-6.685546846579033	23.62624795184729	0.412355816652302	0	0	0	21.24482558402828	-7.850888911441124	-6.685546846579033	23.62624795184729	0.412355816652302	0	0	0	-2.616966107461562	-3.301523496855563	8.600667367779153	28.86327956198032	-7.693978722222645	-3.558463994467159	56.72287241108258	152.2010492426536	0	0	59.33602706458961	-16.48361620367385	13.20821695437714	38.35678856768341	71.7849984351553	0	0
6.719999999999945	-6.685079272328149	-1.429432206645302	24.88694306332552	0	0.9399999999999999	0	21.25684220995688	-7.854314347030072	-6.688942533128356	23.63870140079966	0.4125731703397499	0	0	0	21.25684220995688	-7.854314347030072	-6.688942533128356	23.63870140079966	0.4125731703397499	0	0	0	-2.614900553186821	-3.304810499154505	8.786529343585759	28.76253857610947	-7.733412798870989	-3.524483023587651	56.79062599169901	151.9712447392282	0	0	60.53168831695101	-16.01657886761887	14.51437417762933	37.05833114382113	70.94013625673861	0	0
6.739999999999944	-6.731909477728382	-1.454806541724231	24.76768167690433	0	0.9399999999999999	0	21.26865234343465	-7.857673381700305	-6.692275994813087	23.65095293876222	0.4127870000156295	0	0	0	21.26865234343465	-7.857673381700305	-6.692275994813087	23.65095293876222	0.4127870000156295	0	0	0	-2.666035871756024	-3.315133544695299	8.938566098105447	28.83575067344445	-7.768305590400721	-3.509841120638793	56.8366270946692	151.9430712369443	0	0	61.18337950675569	-15.58349965334664	15.36524926226489	35.82611013799762	70.16615995871592	0	0
6.759999999999944	-6.782814791872101	-1.463203787323555	24.80005935171298	0	0.9399999999999999	0	21.27726202866513	-7.860118171616067	-6.69470415500186	23.65988936199089	0.4129429700243216	0	0	0	21.27726202866513	-7.860118171616067	-6.69470415500186	23.65988936199089	0.4129429700243216	0	0	0	-2.716984707284612	-3.299967801394471	8.933926836702156	28.91824232650484	-7.806066723297542	-3.461395677614822	56.86451062807313	151.913691360514	0	0	61.25271397722945	-15.50091616554162	15.34259725638516	35.40548035891404	70.25867889295913	0	0
6.779999999999943	-6.806130902289066	-1.459984049276497	24.71547279525043	0	0.9399999999999999	0	21.29009028151452	-7.863767598392423	-6.698326536465523	23.67317588524944	0.4131748636013261	0	0	0	21.29009028151452	-7.863767598392423	-6.698326536465523	23.67317588524944	0.4131748636013261	0	0	0	-2.735122061813114	-3.29274192976234	9.055957469503181	28.95009364983316	-7.853844998718863	-3.422184040454809	56.85847813046558	151.837431673721	0	0	61.87406987648213	-15.09911710949627	16.12697788231971	34.59212918159846	69.93045807979207	0	0
